solid Exported from Blender-3.1.2
facet normal -1.000000 0.000000 0.000000
outer loop
vertex -1.097933 -0.989904 -0.727313
vertex -1.097933 -0.989904 1.272687
vertex -1.097933 1.010096 1.272687
endloop
endfacet
facet normal -1.000000 0.000000 0.000000
outer loop
vertex -1.097933 -0.989904 -0.727313
vertex -1.097933 1.010096 1.272687
vertex -1.097933 1.010096 -0.727313
endloop
endfacet
facet normal 0.000000 1.000000 0.000000
outer loop
vertex -1.097933 1.010096 -0.727313
vertex -1.097933 1.010096 1.272687
vertex 0.902067 1.010096 1.272687
endloop
endfacet
facet normal 0.000000 1.000000 0.000000
outer loop
vertex -1.097933 1.010096 -0.727313
vertex 0.902067 1.010096 1.272687
vertex 0.902067 1.010096 -0.727313
endloop
endfacet
facet normal 1.000000 0.000000 0.000000
outer loop
vertex 0.902067 1.010096 -0.727313
vertex 0.902067 1.010096 1.272687
vertex 0.902067 -0.989904 1.272687
endloop
endfacet
facet normal 1.000000 0.000000 0.000000
outer loop
vertex 0.902067 1.010096 -0.727313
vertex 0.902067 -0.989904 1.272687
vertex 0.902067 -0.989904 -0.727313
endloop
endfacet
facet normal 0.000000 -1.000000 0.000000
outer loop
vertex 0.902067 -0.989904 -0.727313
vertex 0.902067 -0.989904 1.272687
vertex -1.097933 -0.989904 1.272687
endloop
endfacet
facet normal 0.000000 -1.000000 0.000000
outer loop
vertex 0.902067 -0.989904 -0.727313
vertex -1.097933 -0.989904 1.272687
vertex -1.097933 -0.989904 -0.727313
endloop
endfacet
facet normal 0.000000 0.000000 -1.000000
outer loop
vertex -1.097933 1.010096 -0.727313
vertex 0.902067 1.010096 -0.727313
vertex 0.902067 -0.989904 -0.727313
endloop
endfacet
facet normal 0.000000 0.000000 -1.000000
outer loop
vertex -1.097933 1.010096 -0.727313
vertex 0.902067 -0.989904 -0.727313
vertex -1.097933 -0.989904 -0.727313
endloop
endfacet
facet normal 0.000000 0.000000 1.000000
outer loop
vertex 0.902067 1.010096 1.272687
vertex -1.097933 1.010096 1.272687
vertex -1.097933 -0.989904 1.272687
endloop
endfacet
facet normal 0.000000 0.000000 1.000000
outer loop
vertex 0.902067 1.010096 1.272687
vertex -1.097933 -0.989904 1.272687
vertex 0.902067 -0.989904 1.272687
endloop
endfacet
facet normal 1.000000 0.000000 0.000000
outer loop
vertex -0.842503 -0.734474 -0.471883
vertex -0.842503 0.754666 -0.471883
vertex -0.842503 0.754666 1.017257
endloop
endfacet
facet normal 1.000000 0.000000 0.000000
outer loop
vertex -0.842503 -0.734474 -0.471883
vertex -0.842503 0.754666 1.017257
vertex -0.842503 -0.734474 1.017257
endloop
endfacet
facet normal 0.000000 -1.000000 0.000000
outer loop
vertex -0.842503 0.754666 -0.471883
vertex 0.646637 0.754666 -0.471883
vertex 0.646637 0.754666 1.017257
endloop
endfacet
facet normal 0.000000 -1.000000 0.000000
outer loop
vertex -0.842503 0.754666 -0.471883
vertex 0.646637 0.754666 1.017257
vertex -0.842503 0.754666 1.017257
endloop
endfacet
facet normal -1.000000 0.000000 0.000000
outer loop
vertex 0.646637 0.754666 -0.471883
vertex 0.646637 -0.734474 -0.471883
vertex 0.646637 -0.734474 1.017257
endloop
endfacet
facet normal -1.000000 0.000000 0.000000
outer loop
vertex 0.646637 0.754666 -0.471883
vertex 0.646637 -0.734474 1.017257
vertex 0.646637 0.754666 1.017257
endloop
endfacet
facet normal 0.000000 1.000000 0.000000
outer loop
vertex 0.646637 -0.734474 -0.471883
vertex -0.842503 -0.734474 -0.471883
vertex -0.842503 -0.734474 1.017257
endloop
endfacet
facet normal 0.000000 1.000000 0.000000
outer loop
vertex 0.646637 -0.734474 -0.471883
vertex -0.842503 -0.734474 1.017257
vertex 0.646637 -0.734474 1.017257
endloop
endfacet
facet normal 0.000000 0.000000 1.000000
outer loop
vertex -0.842503 0.754666 -0.471883
vertex -0.842503 -0.734474 -0.471883
vertex 0.646637 -0.734474 -0.471883
endloop
endfacet
facet normal 0.000000 0.000000 1.000000
outer loop
vertex -0.842503 0.754666 -0.471883
vertex 0.646637 -0.734474 -0.471883
vertex 0.646637 0.754666 -0.471883
endloop
endfacet
facet normal 0.000000 0.000000 -1.000000
outer loop
vertex 0.646637 0.754666 1.017257
vertex 0.646637 -0.734474 1.017257
vertex -0.842503 -0.734474 1.017257
endloop
endfacet
facet normal 0.000000 0.000000 -1.000000
outer loop
vertex 0.646637 0.754666 1.017257
vertex -0.842503 -0.734474 1.017257
vertex -0.842503 0.754666 1.017257
endloop
endfacet
endsolid Exported from Blender-3.1.2
